<?xml version="1.0" encoding="UTF-8"?>
<svg xmlns="http://www.w3.org/2000/svg" xmlns:xlink="http://www.w3.org/1999/xlink" width="1200px" height="600px" viewBox="0 0 1200 600" version="1.1">
<g id="surface1">
<path style=" stroke:none;fill-rule:nonzero;fill:rgb(0%,0%,0%);fill-opacity:1;" d="M 185.210938 177.816406 C 113.378906 188.730469 54.929688 214.789062 22.535156 249.648438 C 6.339844 266.195312 3.519531 274.296875 3.519531 301.054688 C 3.519531 329.929688 5.632812 335.210938 26.054688 355.984375 C 96.480469 427.464844 268.308594 450.351562 400 405.984375 C 541.550781 357.746094 545.070312 249.296875 407.042969 198.589844 C 344.367188 175.351562 253.519531 166.902344 185.210938 177.816406 Z M 280.28125 229.578125 C 300 246.480469 302.816406 253.519531 290.140625 253.519531 C 287.324219 253.519531 278.875 247.886719 271.125 240.84375 C 258.449219 229.226562 257.042969 228.875 248.589844 234.507812 C 240.140625 240.140625 240.84375 241.902344 252.816406 246.480469 C 293.660156 262.324219 270.421875 283.804688 197.183594 296.832031 C 171.125 301.410156 152.113281 306.691406 153.519531 309.15625 C 154.226562 311.621094 150 318.308594 144.367188 323.945312 C 130.984375 336.972656 130.984375 338.027344 146.480469 338.027344 C 154.929688 338.027344 161.269531 334.15625 165.492188 326.761719 C 173.945312 312.675781 198.589844 305.632812 224.648438 310.210938 C 234.507812 312.324219 260.5625 321.480469 281.691406 330.984375 L 320.421875 348.238281 L 259.15625 348.589844 C 208.449219 348.589844 197.183594 347.535156 197.183594 343.308594 C 197.183594 339.4375 205.632812 338.027344 233.097656 338.027344 L 269.71875 338.027344 L 242.957031 327.464844 C 204.226562 311.972656 186.621094 314.4375 181.691406 336.269531 C 179.578125 346.125 177.464844 346.832031 145.070312 347.886719 C 126.054688 348.589844 108.449219 347.886719 105.632812 346.125 C 102.113281 344.71875 121.125 325 146.480469 302.816406 C 207.746094 250 204.929688 252.464844 212.675781 256.339844 C 216.902344 258.449219 213.378906 264.4375 204.226562 272.535156 C 188.027344 285.914062 190.84375 287.675781 223.238281 281.339844 C 259.15625 274.648438 264.085938 260.5625 233.097656 251.410156 L 212.675781 245.421875 L 230.984375 228.519531 C 241.550781 219.015625 252.113281 211.269531 254.929688 211.269531 C 257.042969 211.269531 269.015625 219.367188 280.28125 229.578125 Z M 333.804688 276.054688 C 347.886719 288.378906 359.15625 300.351562 359.15625 302.464844 C 359.15625 310.5625 345.070312 305.632812 329.578125 291.902344 C 314.085938 278.167969 313.378906 277.816406 309.15625 285.914062 C 298.589844 303.875 302.113281 313.378906 320.421875 317.605469 C 333.804688 320.773438 340.84375 320.421875 354.929688 315.84375 C 371.832031 310.210938 372.535156 310.210938 390.140625 325.703125 C 400 334.15625 408.449219 342.605469 408.449219 344.71875 C 408.449219 347.183594 391.550781 348.589844 366.195312 348.589844 C 333.097656 348.589844 323.945312 347.535156 323.945312 343.308594 C 323.945312 339.4375 331.691406 338.027344 352.113281 338.027344 C 378.167969 338.027344 380.28125 337.324219 373.238281 330.984375 C 366.902344 325.351562 362.675781 324.648438 347.886719 327.464844 C 325.351562 331.691406 292.253906 323.945312 286.621094 313.027344 C 280.984375 303.167969 297.183594 253.519531 305.632812 253.519531 C 307.042969 253.519531 319.71875 263.730469 333.804688 276.054688 Z M 333.804688 276.054688 "/>
<path style=" stroke:none;fill-rule:nonzero;fill:rgb(0%,0%,0%);fill-opacity:1;" d="M 623.945312 266.550781 C 617.605469 283.804688 612.675781 299.648438 612.675781 301.761719 C 612.675781 307.746094 648.589844 307.394531 671.832031 301.410156 C 695.070312 295.421875 715.492188 297.535156 728.875 307.394531 C 751.410156 323.238281 732.394531 345.070312 697.183594 345.070312 C 677.464844 345.070312 654.929688 337.324219 654.929688 330.632812 C 654.929688 328.875 642.957031 327.464844 627.464844 327.464844 C 602.816406 327.464844 600.703125 328.167969 603.519531 335.914062 C 609.859375 351.410156 643.660156 363.730469 684.507812 365.140625 C 728.875 366.902344 750.703125 361.972656 772.535156 345.421875 C 816.902344 312.675781 758.449219 267.605469 688.027344 280.984375 C 676.054688 283.097656 665.492188 284.507812 664.085938 283.804688 C 662.675781 283.097656 664.085938 277.113281 667.605469 270.773438 L 673.238281 258.804688 L 723.945312 257.746094 L 774.648438 256.691406 L 774.648438 235.914062 L 635.210938 235.914062 Z M 623.945312 266.550781 "/>
<path style=" stroke:none;fill-rule:nonzero;fill:rgb(0%,0%,0%);fill-opacity:1;" d="M 809.859375 246.480469 C 809.859375 256.339844 811.972656 257.042969 834.507812 257.042969 C 857.042969 257.042969 859.15625 256.339844 859.15625 246.480469 C 859.15625 236.621094 857.042969 235.914062 834.507812 235.914062 C 811.972656 235.914062 809.859375 236.621094 809.859375 246.480469 Z M 809.859375 246.480469 "/>
<path style=" stroke:none;fill-rule:nonzero;fill:rgb(0%,0%,0%);fill-opacity:1;" d="M 958.449219 276.761719 C 937.324219 285.5625 936.621094 285.5625 936.621094 278.519531 C 936.621094 272.535156 932.394531 271.125 911.972656 271.125 L 886.621094 271.125 L 888.730469 317.605469 L 890.84375 364.4375 L 912.675781 365.492188 L 934.507812 366.550781 L 938.027344 335.914062 C 940.84375 309.15625 943.660156 304.578125 957.042969 298.589844 C 966.195312 295.070312 980.984375 292.253906 990.140625 292.253906 C 1004.929688 292.253906 1007.042969 290.492188 1007.042969 279.929688 C 1007.042969 264.4375 990.140625 263.378906 958.449219 276.761719 Z M 958.449219 276.761719 "/>
<path style=" stroke:none;fill-rule:nonzero;fill:rgb(0%,0%,0%);fill-opacity:1;" d="M 1066.902344 272.535156 C 1013.378906 284.507812 995.773438 318.308594 1027.464844 347.886719 C 1044.367188 363.730469 1112.675781 371.832031 1150 362.324219 C 1168.308594 357.746094 1189.4375 345.070312 1190.140625 338.730469 C 1190.140625 332.042969 1155.632812 333.804688 1135.914062 341.550781 C 1126.054688 345.421875 1112.675781 348.589844 1106.339844 348.589844 C 1088.027344 348.589844 1063.378906 338.378906 1063.378906 330.632812 C 1063.378906 324.648438 1069.015625 323.945312 1130.28125 323.945312 C 1195.070312 323.945312 1197.183594 323.589844 1197.183594 315.84375 C 1197.183594 311.621094 1190.84375 301.410156 1183.097656 292.957031 C 1162.675781 270.421875 1114.789062 261.972656 1066.902344 272.535156 Z M 1132.394531 292.957031 C 1150.703125 302.113281 1141.550781 306.339844 1102.113281 306.339844 C 1060.5625 306.339844 1059.859375 305.984375 1070.421875 295.421875 C 1078.875 287.675781 1118.308594 285.914062 1132.394531 292.957031 Z M 1132.394531 292.957031 "/>
<path style=" stroke:none;fill-rule:nonzero;fill:rgb(0%,0%,0%);fill-opacity:1;" d="M 809.859375 319.015625 L 809.859375 366.550781 L 833.097656 365.492188 L 855.632812 364.4375 L 857.746094 317.605469 L 859.859375 271.125 L 809.859375 271.125 Z M 809.859375 319.015625 "/>
</g>
</svg>
